<svg xmlns="http://www.w3.org/2000/svg" viewBox="0 0 448 512" fill="currentColor"><path d="M224.1 141c-63.6 0-114.9 51.3-114.9 114.9s51.3 114.9 114.9 114.9 114.9-51.3 114.9-114.9S287.7 141 224.1 141zm0 186c-39.5 0-71.5-32-71.5-71.5s32-71.5 71.5-71.5 71.5 32 71.5 71.5-32 71.5-71.5 71.5zm146.4-194.3c0 14.9-12 26.9-26.9 26.9s-26.9-12-26.9-26.9 12-26.9 26.9-26.9 26.9 12 26.9 26.9zm76.1 27.2c-1.7-35.3-9.9-66.7-36.2-92.1S388.6 9.7 353.3 8c-35.3-1.7-141.3-1.7-176.6 0-35.3 1.7-66.7 9.9-92.1 36.2S9.7 123.4 8 158.7c-1.7 35.3-1.7 141.3 0 176.6 1.7 35.3 9.9 66.7 36.2 92.1s56.8 34.5 92.1 36.2c35.3 1.7 141.3 1.7 176.6 0 35.3-1.7 66.7-9.9 92.1-36.2s34.5-56.8 36.2-92.1c1.7-35.3 1.7-141.3 0-176.6zM398.8 388c-7.8 19.6-22.9 34.7-42.5 42.5-29.4 11.7-99.2 9-132.3 9s-102.9 2.6-132.3-9c-19.6-7.8-34.7-22.9-42.5-42.5-11.7-29.4-9-99.2-9-132.3s-2.6-102.9 9-132.3c7.8-19.6 22.9-34.7 42.5-42.5 29.4-11.7 99.2-9 132.3-9s102.9-2.6 132.3 9c19.6 7.8 34.7 22.9 42.5 42.5 11.7 29.4 9 99.2 9 132.3s2.6 102.9-9 132.3z"/></svg>
